<svg xmlns="http://www.w3.org/2000/svg" viewBox="0 0 32 32" fill="none">
  <rect width="32" height="32" rx="6" fill="#007aff"/>
  <rect x="4" y="4" width="6" height="6" rx="1" fill="white"/>
  <rect x="4" y="13" width="6" height="6" rx="1" fill="white"/>
  <rect x="4" y="22" width="6" height="6" rx="1" fill="white"/>
  <rect x="13" y="4" width="6" height="6" rx="1" fill="white"/>
  <rect x="22" y="4" width="6" height="6" rx="1" fill="white"/>
  <rect x="13" y="13" width="6" height="6" rx="1" fill="white"/>
  <rect x="22" y="13" width="6" height="6" rx="1" fill="white"/>
  <rect x="13" y="22" width="6" height="6" rx="1" fill="white"/>
  <rect x="22" y="22" width="6" height="6" rx="1" fill="white"/>
  <rect x="6" y="6" width="2" height="2" fill="#007aff"/>
  <rect x="6" y="15" width="2" height="2" fill="#007aff"/>
  <rect x="6" y="24" width="2" height="2" fill="#007aff"/>
  <rect x="15" y="6" width="2" height="2" fill="#007aff"/>
  <rect x="24" y="6" width="2" height="2" fill="#007aff"/>
  <rect x="15" y="15" width="2" height="2" fill="#007aff"/>
  <rect x="24" y="15" width="2" height="2" fill="#007aff"/>
  <rect x="15" y="24" width="2" height="2" fill="#007aff"/>
  <rect x="24" y="24" width="2" height="2" fill="#007aff"/>
</svg>
